<svg id="Layer_1" data-name="Layer 1" xmlns="http://www.w3.org/2000/svg" width="402.51" height="402.51" viewBox="0 0 402.51 402.51">
  <text transform="translate(0 -115.49)" font-size="17" fill="#fff" font-family="MyriadPro-Regular, Myriad Pro"><tspan letter-spacing="0.01em">I</tspan><tspan x="4.23" y="0">mage 4</tspan><tspan x="0" y="20.4" letter-spacing="-0.01em">T</tspan><tspan x="8.33" y="20.4">he first </tspan><tspan x="60.3" y="20.4" letter-spacing="-0.01em">c</tspan><tspan x="67.81" y="20.4">ompa</tspan><tspan x="109.19" y="20.4" letter-spacing="-0.01em">n</tspan><tspan x="118.4" y="20.4">y in </tspan><tspan x="0" y="40.8" letter-spacing="0.01em">S</tspan><tspan x="8.48" y="40.8">outheast </tspan><tspan x="74.92" y="40.8" letter-spacing="-0.01em">A</tspan><tspan x="85.22" y="40.8">sia </tspan><tspan x="107.73" y="40.8" letter-spacing="-0.01em">t</tspan><tspan x="113.25" y="40.8">o make it </tspan><tspan x="0" y="61.2" letter-spacing="-0.01em">t</tspan><tspan x="5.53" y="61.2">o </tspan><tspan x="18.46" y="61.2" letter-spacing="-0.03em">F</tspan><tspan x="26.21" y="61.2">o</tspan><tspan x="35.55" y="61.2" letter-spacing="0.02em">r</tspan><tspan x="41.51" y="61.2">tun</tspan><tspan x="65.94" y="61.2" letter-spacing="-0.02em">e</tspan><tspan x="74.03" y="61.2" letter-spacing="-0.07em">’</tspan><tspan x="76.33" y="61.2">s</tspan><tspan x="83.06" y="61.2" letter-spacing="-0.08em"> </tspan><tspan x="85.25" y="61.2" letter-spacing="-0.02em">“</tspan><tspan x="91" y="61.2">Change the </tspan><tspan x="0" y="81.6" letter-spacing="-0.03em">W</tspan><tspan x="13.82" y="81.6">o</tspan><tspan x="23.15" y="81.6" letter-spacing="0em">r</tspan><tspan x="28.78" y="81.6">l</tspan><tspan x="32.79" y="81.6" letter-spacing="0.01em">d</tspan><tspan x="42.48" y="81.6" letter-spacing="-0.09em">”</tspan><tspan x="47.04" y="81.6" xml:space="preserve"> list </tspan><tspan x="74.59" y="81.6" letter-spacing="0.01em">t</tspan><tspan x="80.37" y="81.6">wi</tspan><tspan x="96.86" y="81.6" letter-spacing="-0.01em">c</tspan><tspan x="104.38" y="81.6">e</tspan></text>
  <path d="M180.27,357.43v13.64c0,4.78,1.75,11.1,1.59,15.13,0,0-9.13,4.89-16,5.09s-15.81,7.54-33.34,2.12a18.29,18.29,0,0,1,10.2-16.33c10.72-5.45,13.7-21.59,13.7-21.59l23.86,1.91,0,0Z" fill="#102f37"/>
  <path d="M182,141v-.52c-2.83.33-15.84,2.64-24.86,18a23.89,23.89,0,0,0,2.17,3.79c1.11,1.48,4.56,3.79,9,6.38,1.39-5.33,6.23-21.27,15.2-26.74Z" fill="#a1a2a2"/>
  <path d="M148.74,120.72a1.81,1.81,0,0,0-1.09-1.58c.08,1,.18,2.1.29,3.16a1.82,1.82,0,0,0,.81-1.58Z" fill="#fff"/>
  <path d="M230.94,74.82c-2.78,3.91,0,14.69,2.51,19.26s25,33.9,25,33.9-6.25,15.43-7.46,19.23,3,7.39,9.65,11.47c8,3,13.14.59,15-2.62s9.53-15.68,9.44-21.37-6.68-20.62-6.68-20.62C272.52,98.54,259.5,84.9,251,77.71,243.32,71.21,231,74.8,231,74.8Z" fill="#4ca635"/>
  <g>
    <path d="M255.46,132.16c12.07-2.56,23.83,1.69,29.37,4.21a7.87,7.87,0,0,0,.21-1.68c-.14-5.95-5.25-17.15-5.25-17.15C273.56,99.45,260.18,82.92,251,77.71s-24.6-1-24.6-1c-2.89,4.12.08,15.38,2.74,20.13s26.33,35.31,26.33,35.31Z"/>
    <path d="M266.26,96.07a3.34,3.34,0,0,0,1.32-1.92c-1.05-1.47-2.12-2.89-3.2-4.23a3.42,3.42,0,0,0-2.18.62,3.38,3.38,0,0,0-.79,4.76A3.52,3.52,0,0,0,266.26,96.07Z" fill="#fff"/>
    <path d="M256.73,98.61a9.32,9.32,0,0,0,9.6,3.53,2.34,2.34,0,0,0,.63-.28,1.69,1.69,0,0,0,.39-2.38,1.72,1.72,0,0,0-1.8-.66,5.87,5.87,0,0,1-6-2.21,5.62,5.62,0,0,1,1.31-7.93,5.84,5.84,0,0,1,1.82-.86c-.81-1-1.63-1.88-2.44-2.75a9.58,9.58,0,0,0-1.45.84h0a9,9,0,0,0-2.09,12.7Z" fill="#fff"/>
  </g>
  <path d="M193.84,149.45c.28-2-.43-3.78-1.56-3.94s-2.29,1.36-2.56,3.39.43,3.79,1.57,3.94,2.28-1.37,2.55-3.4Z"/>
  <path d="M242.29,354a160.18,160.18,0,0,1,1.4,17.43v13.69s11.17,2.34,17.2,2.8,13.69,1.85,20.45,2.08,9.06-1.85,9.06-1.85.69-8.38-8.83-14.19-13.92-8.15-15.23-21.84l-24,1.85Z" fill="#102f37"/>
  <path d="M165.4,180.9s-7,68.93-8.8,113.39-2.34,62.85-2.34,62.85,16.36,7.63,30.25,3.5c0,0,11.3-55.77,15.58-74.07S212,234.79,212,234.79s16.22,29.83,20.38,45.25,4.59,36.24,5.26,48.59c.47,11.42.48,20.29.42,25.19a4.39,4.39,0,0,0,4.24,4.43c7.63.25,23,.21,27-3.88,0,0,5-68.39,3.95-85.83s-18.59-86.65-18.59-86.65l-89.24-1h0Z" fill="#2b667d"/>
  <path d="M163.18,182.7s-.36,6.17-.09,7.26,20.4,6,39.07,3.8S163.18,182.7,163.18,182.7Z" fill="#367b21"/>
  <path d="M177.16,72.66c-3.28,1.08-7.22,2.41-10.35,4.55-6.61,4.53-11.61,11.29-13.39,17-4.55,14.64,6.1,74.25,6.1,74.25s-.45,13.6,5.23,17.13,28,11.14,50.47,9.64c24.09-1.56,36.58-6.49,40-9.41,7.32-6.26,2.05-21.36,2.05-21.36s3-42,2.38-61c-.34-9.81-4-20.35-6.23-23.28-3.21-4.34-10.08-6.57-15.75-7.75-2.8-.58-14.79-2.65-18.77-2.79l-10.14-.11s-18.89-1-31.61,3.12Z" fill="#4ca635"/>
  <path d="M201.32,85.52s-5.66,15.84-17.09,22.94-5.51,19.66-5.51,19.66,22.5-18.4,28.84-41.41l-6.24-1.18Z" fill="#a1a2a2"/>
  <path d="M259.44,123.45c-17.29-10.09-33.78-40.23-33.78-40.23l3.55-3.85c5.14,10.39,26.39,30.94,30.36,32.93C259.8,114,259.44,123.45,259.44,123.45Z" fill="#a1a2a2"/>
  <path d="M228.44,219.76a34.83,34.83,0,0,1-11.16,4.9,6.13,6.13,0,0,0-2.6.84,5.72,5.72,0,0,0-1.2,2.53c-.72,2.24-1.33,4.48-1.89,6.75-.36,1.39,1.82,2,2.16.61.53-2,1.07-4.09,1.7-6.13.15-.52.32-1,.48-1.52s.07-.49.55-.59c.94-.2,1.85-.42,2.76-.68a36.45,36.45,0,0,0,10.32-4.78c1.21-.81.07-2.76-1.13-1.95Z"/>
  <path d="M217.08,87.33a176.76,176.76,0,0,1,7.11,48.15,1,1,0,0,0,2.08,0,178.06,178.06,0,0,0-7.17-48.7,1,1,0,0,0-2,.56h0Z" fill="#367b21"/>
  <path d="M230.65,189.57a19.59,19.59,0,0,0-2.82-9.18,1,1,0,0,0-1.78,1,17.51,17.51,0,0,1,2.53,8.15,1.05,1.05,0,0,0,1,1,1.07,1.07,0,0,0,1-1Z" fill="#367b21"/>
  <path d="M191.31,80.29a18.68,18.68,0,0,0,7.08,4.57,35.91,35.91,0,0,0,8.81,2.5c6.43.93,13.69,0,19-4A16.51,16.51,0,0,0,232.12,75c.35-1.14-1.43-1.63-1.78-.49-2.36,7.66-10.4,11.21-17.93,11.4a31.42,31.42,0,0,1-10.83-1.77c-3.18-1.07-6.69-2.52-9-5.1-.79-.9-2.08.41-1.3,1.3Z" fill="#367b21"/>
  <path d="M224.82,147.12a83.55,83.55,0,0,1,4.66,38.12c-.14,1.23,1.79,1.22,1.93,0a84.78,84.78,0,0,0-4.73-38.63C226.26,145.45,224.39,146,224.82,147.12Z" fill="#367b21"/>
  <path d="M225.15,134.82l-27.23,14-12.13,7,11.45,6.66,29.22-15.3L257.3,164c.12-1.66.53-7.54,1-15.25l-32.93-10.91Z"/>
  <path d="M209.62,174.13c3-8.1,2.86-14.13-.79-16.66-.43-.3-1.13-.75-2-1.32-3.71,1.29-10.59,4.64-13,12.41-1.79,5.64-1.35,10.05-.22,13.13,2.27,1.07,3.94,1.83,4.64,2.12,3.81,1.58,8.41-1.58,11.43-9.67Z"/>
  <path d="M169.41,75.64S153.92,82.09,149.8,92.4s-3,34.44,2.54,52c0,0,3.17,12.69,7,17.78s35.07,20,38.88,21.57,8.41-1.58,11.43-9.67,2.86-14.13-.79-16.66S182,141,182,141s-.64-40.94-1.59-46.66-5.92-17.07-11-18.66Z" fill="#4ca635"/>
  <path d="M182,141s-.64-40.94-1.59-46.66-5.92-17.07-11-18.66c0,0-15.49,6.45-19.61,16.76s-3,34.44,2.54,52c0,0,3.17,12.69,7,17.78a8.51,8.51,0,0,0,1.28,1.26c2.9-5.7,9.78-16.87,21.42-22.53Z"/>
  <path d="M153.3,113.28a3.62,3.62,0,0,0-6-2.6c0,1.84.06,3.71.16,5.62a3.61,3.61,0,0,0,5.84-3Z" fill="#fff"/>
  <path d="M159.34,113a9.7,9.7,0,0,0-10.09-9.3l0,0a9.33,9.33,0,0,0-1.75.24c-.1,1.24-.16,2.55-.2,3.89a6.05,6.05,0,0,1,4.88,11.08,1.82,1.82,0,0,0,.84,3.46,2.12,2.12,0,0,0,.7-.17,9.65,9.65,0,0,0,5.58-9.18Z" fill="#fff"/>
  <path d="M200,158.75a24.18,24.18,0,0,1,7.82,1.19c3.12,1.26,12.66,9.16,14.74,10.94s8.34,6,9.46,7.3,1.18,3.57-.6,3.95c0,0,1.94,1.94,1.79,3.35a3,3,0,0,1-1.26,2.45c-.68.52-3-.07-3-.07a4,4,0,0,1,.08,2.6c-.52,1-2.24,1.56-3.5,1.71s-12.06-8-15.42-11.4-3.65-3.35-3.5-2.83,3.57,9.08,3.8,10.58.67,4.24-1.86,4.91-4.69-.44-6.4-3.65-7.6-17.57-7.6-17.57-9.38,2.09-11.4,1.72-2.6-2.31-2.38-4.18,3.28-3.65,5.59-5.06,4.77-3.21,5.51-3.51,4.39-2.75,8.11-2.45Z" fill="#f09f96"/>
  <path d="M205.52,175.12a20.33,20.33,0,0,0,12.56-1.81c1.1-.55.14-2.21-1-1.66a18.06,18.06,0,0,1-11.06,1.61,1,1,0,0,0-1.19.68,1,1,0,0,0,.67,1.18Z"/>
  <path d="M217.5,178.66c3,2.93,6,5.82,9.14,8.6a1,1,0,0,0,1.37,0,1,1,0,0,0,0-1.36c-3.13-2.78-6.15-5.68-9.14-8.6C218,176.43,216.61,177.79,217.5,178.66Z"/>
  <path d="M224,177c2.11,1.54,4.14,3.14,6.12,4.84a1,1,0,0,0,1.36,0,1,1,0,0,0,0-1.36c-2.1-1.81-4.26-3.53-6.5-5.15a1,1,0,0,0-1.31.35A1,1,0,0,0,224,177Z"/>
  <path d="M168.68,170.12c7.54,4,15.27,7.66,22.9,11.48,1.11.55,2.09-1.11,1-1.67-7.63-3.81-15.36-7.45-22.9-11.47C168.55,167.87,167.58,169.54,168.68,170.12Z" fill="#367b21"/>
  <path d="M182.11,142.39c8,4.86,16.08,9.56,24.09,14.41,1.06.65,2-1,1-1.66-8-4.85-16.08-9.55-24.08-14.41A1,1,0,0,0,182.11,142.39Z" fill="#367b21"/>
  <g>
    <path d="M262.56,150.47c3.05-1.17,6.72,0,7.42.05s3.21,1,5.5,1.58,5.3,1.35,5.95,2.86.63,3.29-1,4.1-10,1.39-10,1.39-1.38,13.53-2,16.64-2.18,4.59-4.47,4.66-2.61-2.36-2.79-3.67.57-9.35.57-9.83-.26-.4-2.24,3.25-9,13.21-10.12,13.4-2.69.11-3.36-.57a3.49,3.49,0,0,1-.58-2.21s-1.79,1.07-2.48.81a2.65,2.65,0,0,1-1.68-1.75c-.47-1.15.68-3.26.68-3.26-1.59.13-2.11-1.83-1.48-3.17s4.82-6.45,6.13-8.48,7.35-11,9.66-12.84a21.34,21.34,0,0,1,6.27-2.94Z" fill="#f09f96"/>
    <path d="M262,165.61a.86.86,0,0,0,.27-1.17.88.88,0,0,0-1.17-.27,15.81,15.81,0,0,1-9.69,1.39c-1.06-.19-1.47,1.45-.4,1.64a17.87,17.87,0,0,0,11-1.6Z" fill="#f09f96"/>
    <path d="M251.35,170.74c-1.79,3.2-3.61,6.38-5.55,9.49a.85.85,0,0,0,.34,1.15.86.86,0,0,0,1.15-.34c1.93-3.11,3.76-6.29,5.54-9.49A.84.84,0,0,0,251.35,170.74Z" fill="#f09f96"/>
    <path d="M247,171.77a.86.86,0,0,0,0-1.19.84.84,0,0,0-1.19,0c-1.48,1.91-2.87,3.9-4.19,5.93a.87.87,0,0,0,.34,1.15.89.89,0,0,0,1.15-.34c1.24-1.92,2.54-3.77,3.93-5.58Z" fill="#f09f96"/>
  </g>
  <path d="M185.24,61.91s-10.53-2-14.18-15C168.88,39.2,170,29.74,170,29.39c.83-6,5.3-18.24,17.55-22.75,10.82-4,12.69-.81,15-1s4.38-2.2,11.51-1.35c6.14.75,13.81,5.41,18.7,12.55,4.27,6.23,3.93,6.84,6.62,15.67,3.17,19.83-21.17,17.93-21.17,17.93s-29.59,26-33.66,16C183.72,64.46,185.24,61.91,185.24,61.91Z"/>
  <path d="M231.81,69.52s5.31-10.53.95-26.38-5.62-23.67-13.27-26.41c-4.92-1.78-5.9-1-7.76.95-1.57,1.62-3.54,4.67-5.4,6.65-4.1,4.35-11,4.48-14.24,3.4-3.56-1.17,4.94,6.38,1.77,12.75-5.5,11-1.32,23.13-1.53,30,1.07,6.47,11.79,13,24.07,11.17,7.07-1,5.39-7.44,5.39-7.44a18.71,18.71,0,0,0,6-1.19,14.48,14.48,0,0,0,4.08-3.5Z" fill="#f09f96"/>
  <path d="M192.85,44.59c1.43,3.35,2.15,9.11-1.11,11.73a5.7,5.7,0,0,1-3,1.2c-3.7.35-7.17-3.14-8.43-6.56s-1.14-8.63,2.36-10.74a7,7,0,0,1,6.74,0A8,8,0,0,1,192.85,44.59Z" fill="#f09f96"/>
  <path d="M184.34,45.27a2.81,2.81,0,0,1,2.12-.27c1.5.51,1.86,2.65,1.82,3.8a5.07,5.07,0,0,1-1.18,3" fill="none" stroke="#000" stroke-linecap="round" stroke-linejoin="round" stroke-width="3"/>
  <path d="M215.78,38.75c1.35,2.32,2.6,4.69,3.74,7.13a13.7,13.7,0,0,1,1.37,3.49c0,.41.07.92-.37,1.1a.52.52,0,0,1-.73-.46,1,1,0,0,0-1.9.21,2.47,2.47,0,0,0,3.48,2c1.79-.78,1.61-2.93,1-4.43a65.7,65.7,0,0,0-5.1-10.12,1,1,0,1,0-1.53,1.13Z"/>
  <path d="M218,50.13l0,.29c0,.2,0-.19,0-.05l0,.3c-.08.19.13-.18,0,0a.42.42,0,0,1-.19.22c-.12.13.17-.12,0,0,0,0-.06.09-.11.09s-.06,0-.12.08.22-.12,0,0a.92.92,0,0,0-.26.11c.15,0,.22-.12,0,0l-.15,0c-.1,0-.2,0,.05,0l-.3,0c-.1,0-.19-.08.05,0a.62.62,0,0,1-.29-.09l-.1,0c-.09,0-.13-.12-.22-.18s.13.12.05,0l-.08-.12-.09-.11c-.12-.17.09.11,0,0s-.06-.21-.1-.32a1,1,0,0,0-1.23-.54,1,1,0,0,0-.54,1.22,2.89,2.89,0,0,0,3,2,3,3,0,0,0,2.57-2.58.95.95,0,0,0-1.87-.29Z"/>
  <path d="M209.93,38.7c-.23,1.52-3.43,1.33-6.44,1.52-2.25.16-3.94,1-4.63-.11-1-1.56.14-3.46,1.24-4.09,1.88-1,6.05-1.59,8.39-.37a2.88,2.88,0,0,1,1.45,3Z" fill="#fdfaff"/>
  <path d="M230,36.1c0,1.61-2.53,1.37-5.54,1.61-2.21.22-4.68,1.55-5.52-.55A2.86,2.86,0,0,1,220.2,34c1.88-1.07,6.06-1.63,8.38-.36A2.6,2.6,0,0,1,230,36.1Z" fill="#fdfaff"/>
  <path d="M223,38.29c2.42.38,3-3.41.59-3.79S220.55,37.92,223,38.29Z"/>
  <path d="M203,40.55c2.42.37,3-3.42.59-3.79S200.57,40.17,203,40.55Z"/>
  <path d="M209,29.33a10.48,10.48,0,0,0-13.34,2.37,1.64,1.64,0,1,0,2.56,2.06,5.55,5.55,0,0,1,.43-.49c0-.05.18-.17,0-.1a.88.88,0,0,1,.23-.21,8.3,8.3,0,0,1,1.08-.79c.11,0,.17-.13.28-.16-.16.07,0,0,.1,0s.43-.18.59-.26.43-.13.64-.2l.32-.1c-.21.06.1,0,.15,0a7.38,7.38,0,0,1,5.45,1,1.66,1.66,0,0,0,2.2-.82,1.74,1.74,0,0,0-.82-2.19Z"/>
  <path d="M229.3,26.72a8.77,8.77,0,0,0-6.44-2.11,8.89,8.89,0,0,0-5.67,2.75,1.65,1.65,0,0,0,.24,2.31,1.69,1.69,0,0,0,2.31-.25c.13-.13.12-.08,0,0a1,1,0,0,1,.24-.21c.17-.13.29-.26.46-.38s.34-.21.51-.33.16-.08,0,0c.1,0,.16-.08.27-.11a7.62,7.62,0,0,1,1.11-.38c-.15,0-.09,0,0,0a.93.93,0,0,0,.32-.05c.2,0,.41-.09.67-.1a.61.61,0,0,0,.3,0l.2,0,.19,0,.94.14.2,0,.19,0a11.32,11.32,0,0,1,1.18.54c-.18-.13.23.13,0,0,.1,0,.19.13.28.19s.35.31.53.44a1.65,1.65,0,0,0,2.07-2.56Z"/>
  <path d="M227,23.58c4.41,11.58,7.33,25.29,5.57,37.68-.45,2.91-1,6.21-3,8.46a10.31,10.31,0,0,1-6.88,3.07c-6.88.75-13.46-1.73-19.73-4.22-2-.75-3.32,2.21-1.38,3,11.13,4.39,29.59,9.67,33.59-6.4,1.77-7.19,1.26-15,.16-22.22A99.07,99.07,0,0,0,230,22.38a1.64,1.64,0,0,0-3.06,1.19Z"/>
  <path d="M205.26,49.67s-.18.48-.26.67a.89.89,0,0,1-.15.33.21.21,0,0,1-.07.14h0a2.15,2.15,0,0,1-.45.59,1,1,0,0,1-.24.26.79.79,0,0,1-.12.14,5,5,0,0,1-.51.37h0a.55.55,0,0,0-.17.08s-.11.08-.15,0,.15,0,.05,0l-.2,0c-.21,0,.15,0-.05,0l-.2,0h0a.66.66,0,0,1-.38-.16.93.93,0,0,1-.38-.16l.36.31s.11.27.19.43c0,0-.12.44-.2.63l-.86.32a1.85,1.85,0,0,0-.43-.17,9.3,9.3,0,0,0-.15-1.28,1,1,0,0,0,.15,1.33.9.9,0,0,0,1.28-.15,1,1,0,0,0-.14-1.34,1,1,0,0,0-1.27,0,.83.83,0,0,0-.17,1.13,1.81,1.81,0,0,0,1.19.74,4.36,4.36,0,0,0,1.38.21,3.28,3.28,0,0,0,1.18-.42A4.9,4.9,0,0,0,206,52.26a6.41,6.41,0,0,0,1-1.92,1.66,1.66,0,0,0,0-.7.94.94,0,0,0-.48-.48,1,1,0,0,0-1.24.47Z"/>
  <path d="M220.07,58.27s-1,6.8-7.06,7.13-10.17-6-9.88-12.12c0,0,.84-1.79,2.57.4s7.8,6.65,14.38,4.54Z"/>
  <path d="M206.67,53.58c-.08,3.46,3.44,7.13,6.89,7.67,2.41.37,3.66-1.5,4.31-3.07C212.87,58.52,208.49,55.52,206.67,53.58Z" fill="#fff"/>
  <path d="M203.77,58c1.17,3.56,3.69,6.47,7,7.24A8.29,8.29,0,0,0,208.25,60a6,6,0,0,0-4.49-2Z" fill="#d95261"/>
  <path d="M221.41,56.81a11.91,11.91,0,0,1-8.5.15A17.74,17.74,0,0,1,209,55a8.51,8.51,0,0,1-3.2-2.81c-.55-1-2.27-.36-1.72.69a8.84,8.84,0,0,0,3.28,3.23,23,23,0,0,0,4.82,2.46,13.9,13.9,0,0,0,9.9-.08c1.09-.49.44-2.2-.69-1.72Z"/>
  <g>
    <path d="M211.37,117l6.31-21.76a3.28,3.28,0,0,1,6-.72l10.82,18.91a3.3,3.3,0,0,0,3.11,1.64l18.59-1.46a3.28,3.28,0,0,1,2.94,5.15l-10.33,14.76a3.26,3.26,0,0,0-.44,2.87l7,22.17a3.28,3.28,0,0,1-4.39,4L230.61,154a3.31,3.31,0,0,0-3.23.4l-15.95,11.93a3.29,3.29,0,0,1-5.25-2.66l.21-20.57a3.29,3.29,0,0,0-1.47-2.77l-15.15-10a3.28,3.28,0,0,1,.92-5.89l18.42-5.23A3.28,3.28,0,0,0,211.37,117Z" fill="#f7d24b"/>
    <path d="M219.09,115.76A39.58,39.58,0,0,1,222,102.05a1.52,1.52,0,0,0-1-1.85,1.55,1.55,0,0,0-1.85,1,42.16,42.16,0,0,0-3,14.51c-.06,1.93,2.94,1.93,3,0Z" fill="#fff"/>
  </g>
  <path d="M258.6,131.81c-.35,5.37-.44,10.74-.65,16.1,0,.78,1.2.88,1.23.1.21-5.37.29-10.74.65-16.1A.62.62,0,0,0,258.6,131.81Z" fill="#367b21"/>
</svg>
