<svg id="Layer_1" data-name="Layer 1" xmlns="http://www.w3.org/2000/svg" xmlns:xlink="http://www.w3.org/1999/xlink" width="402.51" height="402.51" viewBox="0 0 402.51 402.51">
  <defs>
    <mask id="mask" x="156.01" y="118.86" width="10.31" height="10.31" maskUnits="userSpaceOnUse">
      <g id="mask0_38860_757" data-name="mask0 38860 757">
        <path d="M156,118.86h10.31v10.31H156Z" fill="#fff"/>
      </g>
    </mask>
    <mask id="mask-2" x="133.68" y="102.99" width="32.46" height="20.78" maskUnits="userSpaceOnUse">
      <g id="mask1_38860_757" data-name="mask1 38860 757">
        <path d="M133.68,103h32.46v20.78H133.68Z" fill="#fff"/>
      </g>
    </mask>
  </defs>
  <path d="M319.13,53.32c-3,.72-4,1.84-4.53,5.08a.48.48,0,0,1-1,0c-.68-3.22-1.71-4.31-4.68-4.94a.54.54,0,0,1,0-1c3-.72,4-1.83,4.53-5.07a.48.48,0,0,1,.95,0c.68,3.22,1.7,4.31,4.68,4.93A.54.54,0,0,1,319.13,53.32Z" fill="#ffd01c"/>
  <path d="M116.79,150.24a3.67,3.67,0,0,1,3.66-4.08l6.45.38,3.82.23v.07c6.45.48,19.08,1.45,21.42,1.5,3.15.1,2.13,6.68.52,7.07s-29.82-1.23-29.82-1.23h-2.28a3.86,3.86,0,0,1-3.72-3.91l0,0Z"/>
  <path d="M154.07,152.27c.27-2-.42-3.75-1.55-3.91s-2.26,1.35-2.52,3.36.42,3.75,1.55,3.89,2.26-1.35,2.52-3.35Z"/>
  <path d="M140.65,358v13.49c0,4.73,1.73,11,1.57,15,0,0-9,4.85-15.79,5s-15.64,7.46-33,2.09a18.08,18.08,0,0,1,10.08-16.15C114.14,372,117.09,356,117.09,356l23.6,1.89,0,0Z" fill="#003038"/>
  <path d="M202,354.55a159,159,0,0,1,1.38,17.24v13.55s11,2.31,17,2.76,13.54,1.83,20.22,2.06,9-1.83,9-1.83.68-8.29-8.73-14-13.77-8.06-15.06-21.6L202,354.53Z" fill="#003038"/>
  <path d="M125.94,183.37s-6.87,68.17-8.7,112.15-2.32,62.16-2.32,62.16,16.19,7.54,29.92,3.46c0,0,11.18-55.16,15.41-73.26S172,236.67,172,236.67s9.5,36.73,13.61,52,5.59,23.28,8,39.87,4.08,30.05,4.08,30.05,25.68,1.8,31-3.63c0,0-1.35-67.68-2.4-84.93s-12.08-85.66-12.08-85.66l-88.26-1h0Z" fill="#006880"/>
  <path d="M269.82,124.06s3.21-2.23,7.83-6.24a46.58,46.58,0,0,1,10.87-7.11c3.32-1.71,6.47-7.5,9.59-6s2.27,5.72-1.07,9L293.68,117a15.19,15.19,0,0,0,7.54,2.75s1.29-5.53,5-5.47,2.92,4.41,2.92,4.41a33.85,33.85,0,0,1,5.07-4.18c1.95-1.09,5.07-.46,5.39,2.5s-11.74,11-11.74,11,0,4.13-2.36,5.82-3.87,1.57-3.87,1.57a4.87,4.87,0,0,1-4.52,3.61s-1.52,4.76-8.52,3.39l-7-1.38-3.88,1.63L269.85,124l0,0Z" fill="#e7a7ab"/>
  <path d="M213.91,88.21a179.79,179.79,0,0,1,28.51,49.38l27.84-13.77s11.55,21.61,14.48,29.19c0,0-19.46,16.09-34.94,19.17s-35.89-10.05-35.89-10.05Z"/>
  <path d="M242.38,137.59c-7.92,8.92-11.24,21.87-12.59,32.14a80.69,80.69,0,0,1-12.37-5.56,70.78,70.78,0,0,1,21.65-34.73c1.12,2.63,2.25,5.36,3.3,8.15Z" fill="#a1a2a2"/>
  <path d="M273.47,161.16c-6.87,4.46-15.8,9.41-23.7,11-6.39,1.28-13.65-.23-20-2.44,1.35-10.27,4.66-23.21,12.59-32.14L257,130.34C261,136,269.26,148.48,273.47,161.16Z" fill="#4ca635"/>
  <path d="M137.57,76.31c-10.11,3.31-20.89,13-23.48,21.34-4.5,14.48,6,73.43,6,73.43s-.45,13.46,5.16,16.95,27.68,11,49.92,9.53c23.83-1.54,36.19-6.42,39.59-9.31,7.23-6.19,2-21.12,2-21.12s3-41.54,2.34-60.33c-.33-9.71-2.25-14.62-4.41-17.52C210,82.88,196.67,76.66,190.56,75a51.21,51.21,0,0,0-11.7-1.67l-10-.11S150.16,72.2,137.57,76.31Z" fill="#4ca635"/>
  <path d="M185.44,149.69c-.07,2.13-.23,4.28-.45,6.36a1,1,0,1,0,2,0c.26-2.12.38-4.23.45-6.36a1,1,0,0,0-2.05,0Z" fill="#367b21"/>
  <path d="M158.11,151.62,185,137.81l29.77,12.91-11.17,7L186.35,150l-7,3.73-20.55.32-.7-2.41Z"/>
  <path d="M161.47,89s-5.6,15.67-16.9,22.69,2.12,13.9,2.12,13.9a77.07,77.07,0,0,0,20.94-35.39l-6.17-1.18Z" fill="#a1a2a2"/>
  <path d="M219.15,126.54c-17.2-10-33.61-39.78-33.61-39.78l3.54-3.8c5.11,10.27,26.26,30.59,30.2,32.56C219.52,117.19,219.15,126.54,219.15,126.54Z" fill="#9fa0a0"/>
  <path d="M237.27,164.58s6.51-3.83,6.79-5.31-.72-13.34-1.53-14.35-3.86-2.26-3.8,2.14c0,4.22.36,7.31.36,7.31L238,155.52s-2.49-13.58-3.3-14.78-4.61-1.11-3.91,3a53.63,53.63,0,0,0,2.06,8l-2,1.17s-1.06-12.57-2.35-13.73c-.56-.54-3.55-1.32-3.38,3.07s.51,7.31.51,7.31l-9.29,2.68s9.8,13.34,20.85,12.35l0,0Z" fill="#e7a7ab"/>
  <path d="M200.34,153.16l.45,14.91,10.69-1.6c5.05,1.63,26.05,3.3,27.48,3.27s9.72-2.74,11.39-3.32,1.76-2.68-.84-4.12-10.75.55-10.75.55l-10.24-2.78a22.47,22.47,0,0,0,4.38-2.74c2.2-1.77,1.09-3.83-.69-4.81S222,153.64,222,153.64c-11.36-8-19.1-.42-19.1-.42-.61,0-1.45,0-2.51-.06Z" fill="#e7a7ab"/>
  <path d="M213.93,150.61a15.59,15.59,0,0,1,4.19,1.63,34.68,34.68,0,0,0,3.45,2.2c1.31.54,3,0,4.31-.17a37.24,37.24,0,0,1,4.6-.54c1.26,0,2.6.51,2.88,1.85.36,1.66-.89,2.29-2.17,2.85l-8.88,3.89c-1.14.5-.16,2.17,1,1.68l5.34-2.35a28.11,28.11,0,0,0,5-2.32,4.16,4.16,0,0,0-.11-6.73,6.41,6.41,0,0,0-4.42-.75c-1.79.22-3.57.48-5.39.69a3.58,3.58,0,0,1-1.34.09,5,5,0,0,1-1.23-.8,19.35,19.35,0,0,0-2.06-1.31,17.64,17.64,0,0,0-4.66-1.82c-1.23-.29-1.73,1.59-.54,1.87v.06h0Z"/>
  <path d="M230.41,160.69c1.76.36,3.46.95,5.19,1.4,1,.28,2.07.54,3.13.75a10.43,10.43,0,0,0,2.49.32c1.25-.06,1.25-2,0-2a4,4,0,0,1-.92-.06c-.29,0-.83-.14-1.21-.22-1-.23-2.06-.48-3.07-.76-1.67-.45-3.34-1-5.08-1.37-1.23-.25-1.73,1.63-.53,1.88v0Z"/>
  <path d="M237.59,152.09c0,.8.06,1.63,0,2.4v0s.16-.2.06-.09-.23.17-.06.06c-.06,0-.12.09-.17.11l-.66.42a24.53,24.53,0,0,0-3.11,1.76,1,1,0,1,0,1,1.68c1-.75,2.26-1.23,3.35-1.9a5.51,5.51,0,0,0,.83-.59,1.84,1.84,0,0,0,.69-1.28,8.42,8.42,0,0,0,0-1.23v-1.4a1,1,0,1,0-2,0h0Z"/>
  <path d="M188.29,221.8a34.53,34.53,0,0,1-11,4.85,5.78,5.78,0,0,0-2.56.83,5.72,5.72,0,0,0-1.2,2.5c-.7,2.21-1.31,4.43-1.87,6.67-.35,1.38,1.8,2,2.15.61.51-2,1-4,1.67-6.06.16-.52.32-1,.48-1.51s.07-.48.55-.58c.93-.19,1.83-.42,2.73-.67a36.3,36.3,0,0,0,10.2-4.73c1.19-.8.07-2.73-1.12-1.93Z" fill="#102f37"/>
  <path d="M202.74,175.67a2.91,2.91,0,0,1-1.83,3c-.75.29-1.68.6-2.77,1-6.62,2.32-10.37,3.79-23.41,5.17-7.83.83-24.68,3.22-31.62,1.31-23.81-6.44-35.35-62.59-35.8-70.79a46.67,46.67,0,0,1,.74-9.15v-.06c1.2-5.69,2.51-10.35,4.08-13,4-6.86,14-12.75,23.63-15.79a33.77,33.77,0,0,1,7.2,7.1c8.51,11.36,4.3,34.45,4.3,34.45L159.81,154l40.87-.83L202,166.7l.86,9h-.08Z" fill="#4ca635"/>
  <path d="M154.51,139.38c-7.93.75-24.63,4.66-32.82,24.24-9.44-18.86-14.12-43.16-14.41-48.33a46,46,0,0,1,.75-9.15v-.06c1.19-5.69,2.5-10.35,4.08-13,3.94-6.86,14-12.74,23.62-15.79a33.77,33.77,0,0,1,7.2,7.1c8.51,11.36,4.3,34.45,4.3,34.45l7.32,20.54,0,0Z"/>
  <path d="M202.74,175.74a2.75,2.75,0,0,1-1.8,2.86c-.75.29-1.71.64-2.82,1-2.66.93-6.33,2.15-10.6,3.31l-2.37-30,15.45.16,1.29,13.58.86,9Z"/>
  <path d="M157.5,147.77c-6.26,2.59-21.82,10.47-29.5,26.44a73.29,73.29,0,0,1-6.3-10.56c8.22-19.62,24.89-23.54,32.82-24.24l3,8.38v0Z" fill="#9fa0a0"/>
  <path d="M159.81,153.73,158.37,149a1,1,0,0,0-2,.55l1.45,4.78a1,1,0,0,0,1.25.71A1,1,0,0,0,159.81,153.73Z" fill="#367b21"/>
  <path d="M184.08,152.72q-14.51-.1-29,1c-1.31.09-1.31,2.14,0,2.05q14.44-1.11,29-1a1,1,0,0,0,0-2.05Z" fill="#367b21"/>
  <path d="M128,175.79a23.14,23.14,0,0,0,9.05,9c4.4,2.28,9.19,2.28,14,2.28a214.86,214.86,0,0,0,35.35-2.89c1.28-.22.74-2.18-.55-1.95a211.42,211.42,0,0,1-31.5,2.79c-4.75.07-10.09.52-14.61-1.22a19.81,19.81,0,0,1-10-9,1,1,0,0,0-1.77,1v0Z" fill="#367b21"/>
  <path d="M177.05,90.82a174.94,174.94,0,0,1,7,47.62,1,1,0,0,0,2,0,176.15,176.15,0,0,0-7.09-48.16,1,1,0,0,0-2,.55h0Z" fill="#367b21"/>
  <path d="M190.48,191.94a19.43,19.43,0,0,0-2.79-9.08,1,1,0,0,0-1.76,1,17.4,17.4,0,0,1,2.5,8.06,1,1,0,0,0,1,1,1.06,1.06,0,0,0,1-1Z" fill="#367b21"/>
  <path d="M292.29,118.39a11.19,11.19,0,0,1-8,6,1,1,0,1,0,.55,1.92,13.18,13.18,0,0,0,9.24-6.87,1,1,0,0,0-.34-1.38,1.07,1.07,0,0,0-1.4.35l0,0Z"/>
  <path d="M308.29,119.1c-.37,2.41-.74,4.8-1,7.25a1,1,0,0,0,1,1,1,1,0,0,0,1-1c.26-2.23.57-4.47.92-6.7a1,1,0,0,0-1.95-.54Z"/>
  <path d="M303.69,134.15a60.93,60.93,0,0,0,.79-7.17c.06-2-.53-4.29-2.44-5.35a4.09,4.09,0,0,0-4.87.83c-1.1,1.23-1.16,3-1.45,4.58s-.61,3.1-.9,4.64a1,1,0,0,0,.7,1.23,1,1,0,0,0,1.25-.68c.41-2.26.87-4.5,1.28-6.73a2.73,2.73,0,0,1,.9-1.92,2.1,2.1,0,0,1,1.55-.37c1.63.22,2,2.29,2,3.58a43.76,43.76,0,0,1-.74,6.84,1,1,0,0,0,2,.55v0h0Z"/>
  <path d="M298,136.75l-1.4-5.56c-.35-1.44-.77-3-2.11-3.9a4,4,0,0,0-4.75.55c-1.08,1.23-1.14,3.21-1,4.75a24.73,24.73,0,0,0,1.68,6.08,1,1,0,0,0,1.25.68,1,1,0,0,0,.71-1.23,22.2,22.2,0,0,1-1.64-5.65,7.43,7.43,0,0,1,.09-2.49c.18-.72.47-1.15,1.25-1.22a1.59,1.59,0,0,1,1.69.62,5.37,5.37,0,0,1,.67,1.81c.53,2,1,4,1.52,6.08a1,1,0,0,0,1.95-.55l0,0Z"/>
  <path d="M300.27,120.54v-.09a3.69,3.69,0,0,1-.14.83.61.61,0,0,0,0,.4.74.74,0,0,0,.12.37.81.81,0,0,0,.26.3.67.67,0,0,0,.35.16h.27a.77.77,0,0,0,.52-.1.93.93,0,0,0,.47-.6,9.48,9.48,0,0,0,.24-1.25.56.56,0,0,0-.09-.38,1.12,1.12,0,0,0-.2-.32.73.73,0,0,0-.33-.19.84.84,0,0,0-.37-.09h-.26a1.3,1.3,0,0,0-.44.29l-.15.2a.94.94,0,0,0-.15.52l-.09,0v0Z"/>
  <path d="M124,121.29a3.6,3.6,0,1,1,2.5-4.43A3.59,3.59,0,0,1,124,121.29Z" fill="#fff"/>
  <path d="M120.42,108.56a9.6,9.6,0,0,0,1.39,18.77,1.75,1.75,0,0,0,.71,0,1.79,1.79,0,0,0,1.24-2.21,1.75,1.75,0,0,0-1.51-1.29,6,6,0,1,1,4.45-1.25,1.79,1.79,0,0,0-.61,1.9,1.8,1.8,0,0,0,2.84.92,9.6,9.6,0,0,0-8.53-16.77" fill="#fff"/>
  <path d="M151.57,83.87a18.62,18.62,0,0,0,7,4.52,35.52,35.52,0,0,0,8.71,2.46c6.36.92,13.54,0,18.8-4a16.33,16.33,0,0,0,5.85-8.3c.35-1.12-1.41-1.61-1.76-.49-2.33,7.59-10.29,11.09-17.74,11.28a31,31,0,0,1-10.71-1.75c-3.14-1.05-6.61-2.49-8.84-5.05-.79-.89-2.07.42-1.3,1.3Z" fill="#367b21"/>
  <g>
    <path d="M144.64,65.32s-10.41-1.27-14.85-13.62c-2.65-7.42-2.21-16.72-2.23-17.07.4-5.93,3.93-18.15,15.58-23.38C153.42,6.59,155.47,9.6,157.7,9.3s4.12-2.44,11.14-2.09c6,.31,13.84,4.34,19.09,11,4.59,5.79,4.3,6.41,7.52,14.85C199.88,52.15,176,52,176,52S148.9,79.29,144.26,69.83C143.32,67.92,144.64,65.32,144.64,65.32Z"/>
    <path d="M190.58,69.6s4.47-10.63-.85-25.8S182.64,21.09,175,18.93c-4.92-1.4-5.82-.56-7.51,1.45-1.41,1.69-3.13,4.8-4.81,6.85C159,31.76,152.26,32.35,149,31.52c-3.55-.9,5.25,5.89,2.59,12.32-4.61,11.14.28,22.65.55,29.37,1.48,6.24,12.37,11.84,24.24,9.28,6.83-1.48,4.75-7.62,4.75-7.62a18.21,18.21,0,0,0,5.76-1.57,14,14,0,0,0,3.74-3.7Z" fill="#f09f96"/>
    <path d="M150.89,47.92c1.62,3.17,2.71,8.74-.29,11.51a5.55,5.55,0,0,1-2.83,1.38c-3.59.59-7.21-2.58-8.68-5.83s-1.69-8.35,1.58-10.64a6.84,6.84,0,0,1,6.58-.47A7.89,7.89,0,0,1,150.89,47.92Z" fill="#f09f96"/>
    <path d="M142.63,49.15a2.76,2.76,0,0,1,2.05-.41c1.51.4,2,2.46,2,3.59a5,5,0,0,1-.95,3" fill="none" stroke="#000" stroke-linecap="round" stroke-linejoin="round" stroke-width="3"/>
    <path d="M172.86,40.66c1.48,2.18,2.86,4.4,4.13,6.71a13.59,13.59,0,0,1,1.58,3.31c.07.4.12.89-.29,1.1a.51.51,0,0,1-.74-.4.94.94,0,0,0-1.84.33,2.41,2.41,0,0,0,3.53,1.67c1.69-.89,1.37-3,.71-4.39a63.78,63.78,0,0,0-5.66-9.53.93.93,0,0,0-1.42,1.2Z"/>
    <path d="M175.75,51.62l0,.29c0,.19,0-.2,0,0l0,.29c-.07.19.11-.18,0,0s-.12.19-.17.23.16-.13,0,0c0,0,0,.1-.1.09s-.06.05-.11.09.21-.13,0,0a.83.83,0,0,0-.25.13c.15,0,.2-.13,0,0l-.15,0c-.1,0-.19,0,0,0l-.29,0c-.1,0-.19-.06.05,0a.6.6,0,0,1-.29-.08h-.1c-.1,0-.14-.11-.23-.17s.14.11,0,0l-.09-.1L174,52.2h0l-.12-.3a1,1,0,0,0-1.24-.45,1,1,0,0,0-.44,1.24,2.81,2.81,0,0,0,3,1.72,2.88,2.88,0,0,0,2.33-2.69.92.92,0,1,0-1.84-.16Z"/>
    <path d="M167.15,41c-.12,1.51-3.26,1.53-6.18,1.92-2.18.31-3.77,1.25-4.52.21-1-1.46-.1-3.39.93-4.08,1.76-1.12,5.8-2,8.16-.93A2.81,2.81,0,0,1,167.16,41Z" fill="#fdfaff"/>
    <path d="M186.52,37.12c.07,1.57-2.38,1.51-5.3,2-2.14.36-4.46,1.82-5.42-.17a2.77,2.77,0,0,1,1-3.18c1.77-1.18,5.8-2,8.16-.93A2.56,2.56,0,0,1,186.52,37.12Z" fill="#fdfaff"/>
    <path d="M179.84,39.73c2.38.21,2.7-3.53.32-3.74S177.46,39.53,179.84,39.73Z"/>
    <path d="M160.5,43.29c2.38.2,2.7-3.54.32-3.74S158.12,43.08,160.5,43.29Z"/>
    <path d="M165.62,31.93a10.25,10.25,0,0,0-12.85,3.22A1.61,1.61,0,0,0,155.41,37a5.43,5.43,0,0,1,.38-.5s.16-.18,0-.1a1.12,1.12,0,0,1,.21-.22,7.45,7.45,0,0,1,1-.85c.1,0,.15-.13.26-.17-.16.08,0,0,.09,0s.41-.21.57-.3.4-.16.6-.24l.31-.12c-.21.08.09,0,.15,0a7.2,7.2,0,0,1,5.38.6,1.62,1.62,0,0,0,2.09-.95,1.71,1.71,0,0,0-.95-2.08Z"/>
    <path d="M185.24,28a8.53,8.53,0,0,0-11.77,1.45,1.61,1.61,0,0,0,.39,2.24,1.67,1.67,0,0,0,2.24-.4c.11-.14.11-.09,0,0a1.1,1.1,0,0,1,.21-.23c.16-.13.27-.27.43-.4s.31-.22.47-.35.15-.09,0,0c.1,0,.15-.09.26-.13a7.85,7.85,0,0,1,1.06-.45c-.15,0-.1,0,0,0a.66.66,0,0,0,.3-.07c.2,0,.4-.11.65-.14a.57.57,0,0,0,.29,0h.2l.19,0,.93.08s.34,0,.19,0l.2,0a10.51,10.51,0,0,1,1.18.44c-.18-.11.24.12,0,0,.1,0,.19.12.28.17s.37.28.56.39a1.58,1.58,0,0,0,2.23-.4,1.6,1.6,0,0,0-.4-2.23Z"/>
    <path d="M182.74,25.11c5.09,11,8.87,24.18,8,36.38-.24,2.87-.52,6.12-2.38,8.46a10.13,10.13,0,0,1-6.51,3.46c-6.66,1.2-13.25-.78-19.54-2.78-2-.6-3.09,2.38-1.13,3,11.15,3.53,29.52,7.43,32.33-8.52,1.24-7.13.22-14.71-1.35-21.69a96.92,96.92,0,0,0-6.55-19.72,1.61,1.61,0,0,0-2.91,1.37Z"/>
    <path d="M163.34,52s-.14.47-.21.66A1,1,0,0,1,163,53a.24.24,0,0,1-.06.15h0a2.17,2.17,0,0,1-.4.6.77.77,0,0,1-.22.27.44.44,0,0,1-.11.14,3.34,3.34,0,0,1-.47.4h0a.55.55,0,0,0-.15.09s-.11.09-.15,0,.15,0,0,0l-.19,0c-.2,0,.15,0-.05,0l-.19,0h0a.64.64,0,0,1-.38-.13.81.81,0,0,1-.38-.13l.36.28.21.4a5.49,5.49,0,0,1-.15.63c-.25.12-.56.24-.81.37a1.88,1.88,0,0,0-.43-.13,9.18,9.18,0,0,0-.24-1.25.94.94,0,0,0,.24,1.29.88.88,0,0,0,1.24-.23,1,1,0,0,0-.23-1.29.91.91,0,0,0-1.24.09.82.82,0,0,0-.09,1.11,1.74,1.74,0,0,0,1.22.64,4.14,4.14,0,0,0,1.36.12,3.27,3.27,0,0,0,1.12-.49,4.73,4.73,0,0,0,1.34-1.45,6,6,0,0,0,.85-1.94,1.59,1.59,0,0,0,0-.69.85.85,0,0,0-.5-.43,1,1,0,0,0-1.17.54Z"/>
    <path d="M178.37,59.42s-.56,6.7-6.4,7.43-10.33-5.18-10.46-11.15c0,0,.69-1.8,2.53.21s8.06,6,14.34,3.46Z"/>
    <path d="M165,55.75c.15,3.38,3.84,6.73,7.24,7,2.38.21,3.47-1.71,4-3.28C171.36,60.15,166.89,57.52,165,55.75Z" fill="#fff"/>
    <path d="M162.45,60.23c1.38,3.39,4,6.06,7.37,6.59A8.16,8.16,0,0,0,167,61.93a5.75,5.75,0,0,0-4.51-1.65Z" fill="#d95261"/>
    <path d="M179.58,57.91a11.74,11.74,0,0,1-8.29.72,18,18,0,0,1-4-1.61A8.35,8.35,0,0,1,164,54.49c-.6-1-2.24-.19-1.63.79a8.54,8.54,0,0,0,3.42,2.93,22.25,22.25,0,0,0,4.86,2.08,13.64,13.64,0,0,0,9.66-.75c1-.55.28-2.18-.79-1.64Z"/>
  </g>
  <g>
    <circle cx="215.86" cy="117.73" r="32.32" fill="#dbeff5"/>
    <g>
      <path id="Fill-4" d="M202.72,137.73c1.11-1,2.24-1.91,3.37-2.84l1.67-1.34.89-.7.42-.33.21-.17s.27-.2.1-.07a1.52,1.52,0,0,0,.63-.82,1.43,1.43,0,0,0-.14-1.07,1.4,1.4,0,0,0-1.89-.5q-3.69,2.85-7.22,5.89a1.39,1.39,0,0,0,0,1.95,1.42,1.42,0,0,0,2,0" fill-rule="evenodd"/>
      <path id="Fill-6" d="M229,137.73q-1.67-1.44-3.37-2.84L224,133.55c-.29-.24-.59-.47-.89-.7l-.42-.33-.21-.17-.09-.07a1.54,1.54,0,0,1-.64-.82,1.39,1.39,0,0,1,2-1.57q3.67,2.85,7.21,5.89a1.39,1.39,0,0,1,0,1.95,1.42,1.42,0,0,1-2,0" fill-rule="evenodd"/>
      <path id="Fill-8" d="M203.71,137.15H228a1.38,1.38,0,0,0,0-2.76h-24.3a1.38,1.38,0,0,0,0,2.76" fill-rule="evenodd"/>
      <path id="Fill-10" d="M226.72,133.07h-22a4.3,4.3,0,0,1-3-1.2l-2.21-2.11a4.28,4.28,0,0,1-1.34-3.12V101.91a4.31,4.31,0,0,1,4.31-4.31h26.44a4.31,4.31,0,0,1,4.31,4.31v24.83a4.32,4.32,0,0,1-1.4,3.18l-2.2,2a4.29,4.29,0,0,1-2.91,1.14" fill="#da3e40" fill-rule="evenodd"/>
      <polygon id="Fill-12" points="198.17 125.97 233.23 125.97 233.23 117.73 198.17 117.73 198.17 125.97" fill="#f2b13e" fill-rule="evenodd"/>
      <path id="Fill-14" d="M206.71,121.85a2.09,2.09,0,1,1-2.08-2.08,2.09,2.09,0,0,1,2.08,2.08" fill="#fff" fill-rule="evenodd"/>
      <path id="Fill-15" d="M228.85,121.85a2.09,2.09,0,1,1-2.08-2.08,2.09,2.09,0,0,1,2.08,2.08" fill="#fff" fill-rule="evenodd"/>
      <path id="Fill-16" d="M205,114.48a1.75,1.75,0,0,1-1.75-1.75v-7.09a1.75,1.75,0,1,1,3.5,0v7.09a1.75,1.75,0,0,1-1.75,1.75" fill-rule="evenodd"/>
      <path id="Fill-17" d="M226.77,114.48a1.75,1.75,0,0,1-1.75-1.75v-7.09a1.75,1.75,0,0,1,3.5,0v7.09a1.75,1.75,0,0,1-1.75,1.75" fill-rule="evenodd"/>
      <path id="Fill-18" d="M219.08,103.44h-6.76a1.3,1.3,0,1,1,0-2.59h6.76a1.3,1.3,0,0,1,0,2.59" fill-rule="evenodd"/>
      <path id="Fill-19" d="M204,130h23.32a1.39,1.39,0,0,0,0-2.77H204a1.39,1.39,0,0,0,0,2.77" fill-rule="evenodd"/>
    </g>
  </g>
  <g>
    <circle cx="281.72" cy="87.28" r="32.32" fill="#dbeff5"/>
    <g>
      <path d="M295.2,78.82s.32-1.48.86-1.58a10.42,10.42,0,0,1,2,0s1,0,.43,1.63c-.27.77-2.65,1-2.65,1l-.62-1.08Z"/>
      <path d="M268.27,78.82s-.33-1.48-.86-1.58a10.42,10.42,0,0,0-2,0s-1,0-.43,1.63c.26.77,2.65,1,2.65,1l.62-1.08Z"/>
      <path d="M265,98.26h6.08v3a1.59,1.59,0,0,1-1.58,1.59h-2.92a1.59,1.59,0,0,1-1.58-1.59Z"/>
      <path d="M292.4,98.26h6.08v3a1.59,1.59,0,0,1-1.58,1.59H294a1.59,1.59,0,0,1-1.58-1.59Z"/>
      <path d="M298.75,85.07c-.19-1.26-2.47-4.38-2.47-4.38s-3.78-7.45-4.93-8.13a24.09,24.09,0,0,0-5.06-.65,74.48,74.48,0,0,0-9.91,0,15.37,15.37,0,0,0-4.25.65c-1.16.68-4.93,8.13-4.93,8.13s-2.28,3.12-2.47,4.38-1,2.32-1,3,0,8.56.3,9.62,4.35,2.46,11.41,2.55c3,0,5,0,6.27,0s3.3,0,6.28,0c7.05-.09,11.12-1.5,11.41-2.55s.29-9,.29-9.62-.77-1.74-1-3Z" fill="#62bb4c"/>
      <path d="M270.34,88.05s14,1.94,21.85,0c0,0,1.54,0,1.26,1.19s-2.84,5.24-3.82,5.77-14.69.59-16.39-.12a10.37,10.37,0,0,1-3-5.06C269.54,87.39,270.34,88.05,270.34,88.05Z"/>
      <path d="M272.44,73.2a.86.86,0,0,1,.58-.33c.87-.07,4.11-.25,8.4-.19,5.24.06,8.13.21,8.87.28a.77.77,0,0,1,.57.33,34,34,0,0,1,3.26,5.6.87.87,0,0,1-.73,1.23c-3.83.17-17.31.43-23.56,0a.86.86,0,0,1-.69-1.25A34.7,34.7,0,0,1,272.44,73.2Z" fill="#545454"/>
      <path d="M299.13,84.58c-.46-1-1.06-1.13-1.06-1.13-.08.71-1.93,1.63-1.93,1.63-.52.25-1.05.49-1.55.77a11.92,11.92,0,0,0-3.48,2.92.93.93,0,0,0-.18.39.88.88,0,0,0,.06.43.68.68,0,0,0,.27.33.89.89,0,0,0,.41.15,30.3,30.3,0,0,0,4.67-.11,4.93,4.93,0,0,0,3-1,2.65,2.65,0,0,0,.49-.46c.68-1.12-.29-2.94-.75-3.93Z" fill="#f1b345"/>
      <path d="M264.31,84.58c.46-1,1.07-1.13,1.07-1.13.07.71,1.92,1.63,1.92,1.63.52.25,1.05.49,1.56.77a11.88,11.88,0,0,1,3.47,2.92.93.93,0,0,1,.18.39.78.78,0,0,1-.06.43.73.73,0,0,1-.26.33.89.89,0,0,1-.42.15,30.2,30.2,0,0,1-4.66-.11,4.93,4.93,0,0,1-3.05-1,2.65,2.65,0,0,1-.49-.46c-.68-1.12.3-2.94.76-3.93Z" fill="#f1b345"/>
    </g>
  </g>
  <g>
    <circle cx="144.52" cy="116.08" r="32.32" fill="#dbeff5"/>
    <g>
      <path d="M122.72,128.56h17.05" fill="none" stroke="#3c88a7" stroke-linecap="round"/>
      <path d="M127.45,125h13" fill="none" stroke="#3c88a7" stroke-linecap="round"/>
      <path d="M155.18,103h2.57a2.51,2.51,0,0,1,2.41,3.44,6,6,0,0,1-1.42,2Z" fill="#f5c54a" fill-rule="evenodd"/>
      <g mask="url(#mask)">
        <path d="M166.32,124a5.16,5.16,0,1,1-5.16-5.16A5.16,5.16,0,0,1,166.32,124Z" fill-rule="evenodd"/>
      </g>
      <path d="M163.29,124a2.13,2.13,0,1,1-2.13-2.13A2.12,2.12,0,0,1,163.29,124Z" fill="#3a3a3a" fill-rule="evenodd"/>
      <path d="M144.65,124a5.16,5.16,0,1,1-5.16-5.16A5.16,5.16,0,0,1,144.65,124Z" fill-rule="evenodd"/>
      <path d="M141.62,124a2.13,2.13,0,1,1-2.13-2.13A2.12,2.12,0,0,1,141.62,124Z" fill="#3a3a3a" fill-rule="evenodd"/>
      <g mask="url(#mask-2)">
        <path d="M153.59,123.77a1.28,1.28,0,0,0,1.25-.93,6.73,6.73,0,0,1,10.51-3.71.5.5,0,0,0,.79-.43c0-1.62-.63-4.88-4.15-8.28a95,95,0,0,1-6.7-7.41s-1.42-.22-1.45,1,1.73,5.13,1.47,7.76c-.8,8.09-5.59,7.12-5.59,7.12s-.63-4.86-4.95-5-6.26-.85-8.67.9c-2.22,1.62-2.86,5.14-2.13,5.81.33.31,1.31,0,2.42-.58a6.5,6.5,0,0,1,5-.67c2.26.65,2.58,2.5,3,3.59a1.09,1.09,0,0,0,1,.71Z" fill="#357a24" fill-rule="evenodd"/>
      </g>
      <path d="M151.8,106.89h3.13a.52.52,0,0,0,.52-.51v-.63a.52.52,0,0,0-.52-.52H151.8a.52.52,0,0,0-.52.52v.63A.51.51,0,0,0,151.8,106.89Z" fill-rule="evenodd"/>
      <path d="M153.46,124.39l0,.27a1.5,1.5,0,0,1-1.49,1.41H144a1.5,1.5,0,0,1-1.46-1.2l-.23-1.06A1.51,1.51,0,0,1,144,122l8.15.79A1.51,1.51,0,0,1,153.46,124.39Z" fill="#a3a4a4" fill-rule="evenodd"/>
      <path d="M148.78,112.68v1.4a.91.91,0,0,1-.91.91l-11.45-.16a.92.92,0,0,1-.6-.25l-.52-.49a1.87,1.87,0,0,1-.59-1.25v-.09a.89.89,0,0,1,.88-1h12.3A.89.89,0,0,1,148.78,112.68Z" fill="#3a3a3a" fill-rule="evenodd"/>
    </g>
  </g>
  <path d="M109.11,83.4c-3,.72-4,1.83-4.52,5.07a.48.48,0,0,1-1,0c-.67-3.22-1.7-4.31-4.68-4.93a.55.55,0,0,1,0-1c3-.72,4-1.83,4.53-5.07a.48.48,0,0,1,1,0c.67,3.22,1.7,4.31,4.68,4.94A.54.54,0,0,1,109.11,83.4Z" fill="#ffd01c"/>
</svg>
