<svg id="Layer_1" data-name="Layer 1" xmlns="http://www.w3.org/2000/svg" width="402.51" height="402.51" viewBox="0 0 402.51 402.51">
  <path d="M265.39,183.3l10.09-.71a12.74,12.74,0,0,1,5.17-6.56c3.79-2.14,6.82-6.94,6.31-13.12s2.78-8.32,5.93-6.68,4.79,13.87,1.51,17.78c0,0,11.73.26,15.26.13s8.33,6.31,1.52,8.7c0,0,3.61.26,3.7,3.66s-3.2,5.3-3.2,5.3,3.37,1.64,3.07,4.29-4.08,4.16-4.08,4.16,1.52.13,1.27,2.77-2.65,3-10.73,3.41-20.93,1.39-25.6-4l-10.22.33Z" fill="#f09f96"/>
  <path d="M310.57,184c-3,.27-6,.59-9,1a1,1,0,0,1-1-1,1,1,0,0,1,1-1c3-.38,6-.71,9-1a1,1,0,0,1,1,1,1,1,0,0,1-1,1"/>
  <path d="M311.23,193.13l-8.67.18a1,1,0,0,1,0-2l8.67-.17a1,1,0,0,1,0,1.95"/>
  <path d="M310.37,201.23l-7.21.41a1,1,0,1,1,0-1.95l7.21-.42a1,1,0,0,1,1,1,1,1,0,0,1-1,1"/>
  <path d="M393.53,10.3c-4,1-5.4,2.51-6.18,6.94a.66.66,0,0,1-1.31,0c-.92-4.4-2.32-5.88-6.4-6.74a.74.74,0,0,1,0-1.42c4.05-1,5.41-2.51,6.19-6.94a.66.66,0,0,1,1.31,0c.92,4.4,2.32,5.88,6.39,6.74A.74.74,0,0,1,393.53,10.3Z" fill="#ffd01c"/>
  <path d="M273.37,57.55c-4.05,1-5.41,2.51-6.19,6.94a.66.66,0,0,1-1.31,0c-.91-4.4-2.32-5.88-6.39-6.74a.74.74,0,0,1,0-1.42c4-1,5.4-2.51,6.18-6.94a.66.66,0,0,1,1.31,0c.92,4.4,2.32,5.88,6.4,6.74A.74.74,0,0,1,273.37,57.55Z" fill="#ffd01c"/>
  <path d="M345.44,21.68s.12,10.65-4.37,14.76a20.8,20.8,0,0,1-8.85,5l-5.65,8.85L307.25,40.07s2.11-3.64,2.24-4.66,1.28-12.2,2.57-15.42,7.63-11.5,8.54-12.13,4-.06,3.92,4.43a11.5,11.5,0,0,1,4.11-2.95c2.06-.64,3.72,1.66,3.72,1.66a12.07,12.07,0,0,1,4.23-2.57c2.06-.51,3.34,1.67,3.34,1.67s4.24-.52,5.65-.77,3.09,3.34,3.09,3.34,11.68-.26,13.48-.77,3.08,4-.9,5.51a53.25,53.25,0,0,1-8,2.32l-7.83,1.92Z" fill="#f09f96"/>
  <path d="M324.06,11.83a23.36,23.36,0,0,1-1.49,4.86,24.31,24.31,0,0,1-1.21,2.39,3,3,0,0,0-.59,1.71A9.87,9.87,0,0,0,321.4,23a27.57,27.57,0,0,1,.62,2.69,24.8,24.8,0,0,1,.31,5.23c-.05,1.29,2,1.29,2,0a26.16,26.16,0,0,0-.28-5.08,48,48,0,0,0-1.16-4.69c-.19-.75.32-1.25.67-1.92s.66-1.35,1-2.05a25.31,25.31,0,0,0,1.46-4.8c.25-1.27-1.68-1.8-1.93-.54Z"/>
  <path d="M230.71,93.35s47.5-.11,50-.31l26.58-53L334,53.78s-22.5,60.73-30.47,69.72-60.53,18-60.53,18L230.71,93.34Z" fill="#4ba435"/>
  <path d="M299.36,126.5C297,116.42,280.67,93,280.67,93c-2.46.2-50,.31-50,.31L243,141.51s41.47-7.1,56.32-15Z"/>
  <path d="M63.62,334l-9.56,8.76,9.83,23.53L85,354.25Z" fill="#f09f96"/>
  <path d="M281.14,362.3,290,375.09l22.17-7.52-5.83-16.91Z" fill="#f09f96"/>
  <path d="M63.62,334l45.72-41.94a19.7,19.7,0,0,0,5.55-8.9l19.68-66.65,94.22,8.21S279.21,272,282.17,276.1c2.7,3.74,23.35,66.62,27,77.89a2.23,2.23,0,0,1-1,2.66c-3.75,2.06-13.94,7-29.4,9.55a4.35,4.35,0,0,1-4.57-2.3L244.47,306a9.4,9.4,0,0,0-2.87-3.33L189,264.87l-9.17,3.46-24.31,39.83a19.48,19.48,0,0,1-4.66,5.21L91,360.26a3.32,3.32,0,0,1-3.74.25C83.42,358.26,74.74,351.67,63.62,334Z" fill="#006880"/>
  <path d="M131.91,215.75s-.84,3.14-.5,4.14,35,12.31,73.54,12.66c0,0,20.17-2,26-3.81a2.28,2.28,0,0,0,1.55-1.82,56.61,56.61,0,0,0,.17-11.3C232.07,205.66,131.91,215.75,131.91,215.75Z" fill="#027d01"/>
  <path d="M131.91,215.75s-4.57-7.32,5.77-16.93c0,0,3.66-7.41,5.54-23.44s-1-37.59.73-44.84.65-14.73,12.53-20.92S191.07,98.47,199,96.84s25-3.59,31.74-3.5c0,0,19,11.82,18.27,46.18-1.11,10.13-2.6,22.74-10.5,44l-4,14.83S239.1,214,232.8,218.6s-23.85,12.73-63.89,8.9c0,0-23.83-2.52-37-11.77Z" fill="#4ba435"/>
  <path d="M188.9,125.58s-2.94,13.64-5.29,17.75,5.88,13.06,5.88,13.06,5.76-10.47,6.11-27.16Z" fill="#9fa0a0"/>
  <path d="M248.24,145.8c.29-2.21.52-4.29.74-6.27.05-2.3,0-4.49-.11-6.59-13.61-3.66-22-15.84-22-15.84l-3.06,5.18C231,134.93,243.12,142.85,248.24,145.8Z" fill="#9fa0a0"/>
  <path d="M210.17,130.47c1.66,12.16,3.29,24.41,2.62,36.7-.33,6.05-1.13,12.06-1.89,18.07s-1.61,12.18-2.5,18.27q-1.49,10.28-3.17,20.49c-.21,1.27,1.72,1.81,1.93.54q3-18.34,5.43-36.8c.79-6.1,1.62-12.21,2.07-18.35a125.54,125.54,0,0,0-.13-18.6c-.54-7-1.48-13.93-2.43-20.86-.17-1.28-2.1-.73-1.93.53Z" fill="#027d01"/>
  <path d="M145.05,204.25s25.16-2.47,68.68-30.93L235,192.91l-2.88,10.73L213.3,188s-41.87,28.25-71.77,29.9L145,204.25Z"/>
  <path d="M37.05,359.67l17-16.93s7.62,18,16.19,20.05c0,0-5,10.69-2.88,18.15s6.26,13.12,7.89,13.9a7.08,7.08,0,0,1,3,4.09A2.41,2.41,0,0,1,76,402H48.77a5.73,5.73,0,0,1-5.63-4.62c-2-10-6.47-33.07-6.08-37.75Z" fill="#003038"/>
  <path d="M57.47,380.81a12.41,12.41,0,0,1,8.58.88,1,1,0,1,0,1-1.72,14.53,14.53,0,0,0-10.12-1.09A1,1,0,0,0,57.47,380.81Z"/>
  <path d="M311.11,364.47S320,382,321,382.9s12.22,5.11,14.23,15.81a2.8,2.8,0,0,1-2.72,3.34h-39a2.79,2.79,0,0,1-2.73-2.27l-3.1-28s14-.25,23.37-7.31Z" fill="#003038"/>
  <path d="M310.79,383.47a28.77,28.77,0,0,1,11.89.93,1,1,0,0,0,.54-1.94,31,31,0,0,0-13-.92,1,1,0,0,0-.7,1.23A1,1,0,0,0,310.79,383.47Z"/>
  <path d="M179.5,269.11l18.78-6.47c1.22-.42.69-2.36-.53-1.93L179,267.18C177.75,267.6,178.28,269.53,179.5,269.11Z"/>
  <path d="M275.38,177.33l1.33,33.5s-80.87,4.76-91.72,2.66S151.11,181,142.36,156.4s.19-41.1,8.94-43.39,20,1.9,27.2,15.23,23.61,51.39,23.61,51.39l73.27-2.29Z" fill="#4ba435"/>
  <path d="M178.51,128.24c-7.23-13.32-18.46-17.51-27.2-15.23s-17.7,18.85-8.94,43.39c8.37,23.48,29.79,52.34,41.14,56.64,11.27-11.08,18.62-33.42,18.62-33.42s-16.37-38.06-23.61-51.39Z"/>
  <path d="M281,92.46l-.29.58c-.25,0-1,0-2,.06,2.62,4.55,10.23,19.48,9.34,38,7.34-2.38,13.3-5,15.59-7.54a31,31,0,0,0,3.43-5.27c-3.06-4.95-11.95-17.81-26-25.78Z" fill="#9fa0a0"/>
  <path d="M203.39,179.58l-1.27,0-.84-1.94a88,88,0,0,1-28.63,27.18c4.72,4.81,9.08,8,12.34,8.62,2.1.41,6.87.56,13.17.53a80,80,0,0,0,5.23-34.45Z" fill="#9fa0a0"/>
  <path d="M302.07,50.41l26.71,17.23c3.15-8.16,5.27-13.86,5.27-13.86l-26.79-13.7-5.18,10.33Z"/>
  <path d="M275.38,177.33l-13.9.44c-.13,7.72-.4,25.53,0,33.89,9.12-.48,15.26-.84,15.26-.84l-1.33-33.5Z"/>
  <path d="M198.4,215.06c11.88-.56,23.81-1.25,35.71-1.3a1,1,0,0,0,0-2c-11.91.05-23.83.74-35.71,1.3C197.11,213.12,197.1,215.13,198.4,215.06Z" fill="#027d01"/>
  <path d="M202.55,180.53c10-.14,20-.67,30-.75,2.22,0,4.45,0,6.67.08,1.28.06,1.28-1.94,0-2-4.49-.23-9-.07-13.49,0-5.52.12-11,.31-16.54.47-2.23.06-4.45.14-6.68.17A1,1,0,0,0,202.55,180.53Z" fill="#027d01"/>
  <path d="M178.74,115.85a31.4,31.4,0,0,0,25,15.42,23.89,23.89,0,0,0,12.15-2c4.79-2.28,9.07-5.92,11.18-10.88a15.26,15.26,0,0,0,1.26-5.18c.14-3.12-1.19-6.26-2.64-9-.62-1.13-2.35-.12-1.73,1,2.06,3.8,3,7.53,1.57,11.62-1.6,4.43-5.24,7.78-9.31,10-6.86,3.7-15.77,3-22.73-.19a29.41,29.41,0,0,1-13-11.9,1,1,0,0,0-1.73,1Z" fill="#027d01"/>
  <path d="M139.06,198.79c1.58-1.69,3.21-3.31,4.91-4.89a1,1,0,0,0-1.42-1.42c-1.68,1.57-3.33,3.21-4.91,4.89a1,1,0,0,0,1.42,1.42Z" fill="#027d01"/>
  <g>
    <path d="M163.39,152.81a3.78,3.78,0,1,1,2.62-4.66A3.79,3.79,0,0,1,163.39,152.81Z" fill="#fff"/>
    <path d="M159.67,139.43a10.08,10.08,0,0,0,1.46,19.71,1.9,1.9,0,0,0,.74,0,1.87,1.87,0,0,0,1.3-2.33,1.83,1.83,0,0,0-1.58-1.35,6.3,6.3,0,1,1,4.68-1.31,1.89,1.89,0,0,0,1.67,3.3,2,2,0,0,0,.67-.34,10.08,10.08,0,0,0-9-17.61" fill="#fff"/>
  </g>
  <path d="M325.78,21l-7,14L301,49.1a3.39,3.39,0,0,0-1.28,2.51L297.32,106a4.54,4.54,0,0,0,2.35,4.16l22.72,11L327,36.91,325.76,21Z" fill="#f07600"/>
  <path d="M364.86,31l-3.1-12.61-36,2.58L327,36.92l-6,15.64a10.7,10.7,0,0,0-.72,4l.67,62.24a2.59,2.59,0,0,0,2.9,2.54l56.26-7a4,4,0,0,0,3.47-3.69l3.79-60.84a3.09,3.09,0,0,0-1.21-2.64L364.86,31.05Zm-33,3.4L331,25.13,357.84,23l1.51,8.5Z" fill="#ffb31c"/>
  <path d="M368.83,97.7c8-8.15,8.78-20.77,1.76-28.22s-19.19-6.88-27.18,1.26S334.62,91.52,341.64,99,360.83,105.85,368.83,97.7Z" fill="#fd0038"/>
  <path d="M355.21,83.29a36.38,36.38,0,0,0-.64-6.42,1,1,0,0,0-.44-.76,1.16,1.16,0,0,0-.89-.13,1.48,1.48,0,0,0-.83,1.66,26.85,26.85,0,0,1,.55,4.17.94.94,0,0,1-.72,1,.74.74,0,0,1-.8-.79L351.25,77a1.3,1.3,0,0,0-.27-.82,1.2,1.2,0,0,0-.72-.42A1.36,1.36,0,0,0,349,77.22l.2,5.17a1,1,0,0,1-.74,1,.8.8,0,0,1-.57-.21.82.82,0,0,1-.22-.59,26,26,0,0,1,.19-4.3,1.35,1.35,0,0,0-.21-.93,1,1,0,0,0-.76-.46,1.09,1.09,0,0,0-.46.1,1.12,1.12,0,0,0-.41.3,1.55,1.55,0,0,0-.29.43,1.31,1.31,0,0,0-.09.47,37.43,37.43,0,0,0-.17,6.15,6,6,0,0,0,.74,2.7,5.14,5.14,0,0,0,1.83,1.9,2.15,2.15,0,0,1,.83.81,2.69,2.69,0,0,1,.37,1.18l.24,3.1a1.26,1.26,0,0,0,.39.92,1.28,1.28,0,0,0,.94.34,1.31,1.31,0,0,0,.49-.24,1.69,1.69,0,0,0,.4-.4,2,2,0,0,0,.25-.5,1.37,1.37,0,0,0,0-.53l0-3a2.85,2.85,0,0,1,.28-1.22,3.66,3.66,0,0,1,.8-1.08A7.45,7.45,0,0,0,354.72,86a5.9,5.9,0,0,0,.48-2.66Z" fill="#fff"/>
  <path d="M361.25,74c-3,.46-4.24,5.68-4.11,9a5.28,5.28,0,0,0,.69,2.32A4.42,4.42,0,0,0,359.45,87a2.4,2.4,0,0,1,1.12,1.8l.3,3.45a1.34,1.34,0,0,0,.39.92,1.27,1.27,0,0,0,.95.32,1.33,1.33,0,0,0,.5-.23,1.42,1.42,0,0,0,.41-.4,1.5,1.5,0,0,0,.26-.5,1.39,1.39,0,0,0,.05-.53l0-3.49a2.46,2.46,0,0,1,.23-1.11,3.1,3.1,0,0,1,.68-1,6.37,6.37,0,0,0,1.44-2.13,5.26,5.26,0,0,0,.43-2.37c-.17-3.4-1.92-8.16-4.92-7.69Z" fill="#fff"/>
  <path d="M319.27,56.3c9.93-1.08,19.84-2.16,29.75-3.41,1.26-.15,1.27-2.16,0-2-9.91,1.23-19.83,2.31-29.75,3.41C318,54.44,318,56.45,319.27,56.3Z" fill="#f07600"/>
  <path d="M330.1,18.12l3.08,5.64-1.61,5.44.34,3.55a5.42,5.42,0,0,0,3.63-.13c1.61-.8,4.16-4.9,4.16-4.9s.13,6,4,4.9c0,0,.6-.07,1.27-1.35a27.26,27.26,0,0,0,1.27-2.94s1.08,2,2.28,2.22,2.15.33,3.09-1.28a50.6,50.6,0,0,0,2.75-7c.27-.94-2.68-5.37-3.23-6s-21.07,1.88-21.07,1.88Z" fill="#f4a5ab"/>
  <path d="M329.4,19.61c1.28,2,2.48,4.09,3.61,6.2a1,1,0,1,0,1.72-1c-1.13-2.1-2.33-4.17-3.6-6.19a1,1,0,0,0-1.37-.36A1,1,0,0,0,329.4,19.61Z"/>
  <path d="M335.22,14.75c1.1,1.5,2.21,3,3.2,4.56a17.36,17.36,0,0,1,1.34,2.33,3.44,3.44,0,0,1-.18,2.82c-1,2.64-2.69,7.72-6.39,7.12-1.26-.2-1.8,1.73-.53,1.93,4.76.78,7.06-3.92,8.51-7.61a8.94,8.94,0,0,0,.88-3.14,6.15,6.15,0,0,0-1-3,61,61,0,0,0-4.08-6c-.76-1-2.49,0-1.72,1Z"/>
  <path d="M332.19,24.34a22.11,22.11,0,0,0-1.78,3.86,1,1,0,0,0,.7,1.24,1,1,0,0,0,1.23-.7c.11-.32.23-.63.35-.94,0-.06.1-.35,0-.07,0-.06,0-.12.08-.19s.14-.3.21-.45c.28-.59.58-1.17.91-1.73a1,1,0,0,0-.36-1.37,1,1,0,0,0-1.36.36Z"/>
  <path d="M338.23,28.4c0,2.45,1.52,4.94,4.17,5.09,3.06.18,4.07-3,5.1-5.26a14.52,14.52,0,0,0,1.5-4.18,6.82,6.82,0,0,0-.92-3.87A58.24,58.24,0,0,0,344,14.11c-.73-1-2.46-.06-1.72,1,1,1.42,1.95,2.86,2.93,4.29a11.46,11.46,0,0,1,1.54,2.78,4.33,4.33,0,0,1-.22,3.2c-.44,1.09-.92,2.14-1.43,3.2-.39.83-.8,2.25-1.65,2.73-1.92,1.06-3.24-1.33-3.25-2.9a1,1,0,0,0-2,0Z"/>
  <path d="M349.66,15.49c1.19,1.54,2.37,3.1,3.55,4.64a1.15,1.15,0,0,0,.6.46,1,1,0,0,0,.77-.1,1,1,0,0,0,.36-1.37c-1.19-1.54-2.37-3.09-3.55-4.63a1.17,1.17,0,0,0-.6-.47,1,1,0,0,0-1.13,1.47Z"/>
  <path d="M322.07,174.69c3.06-1.06,6.12-2.22,9.21-3.23a1.41,1.41,0,1,0-.87-2.66c-3.13,1-6.22,2.12-9.29,3.26a1.4,1.4,0,1,0,.78,2.68l.17,0Z" fill="#fcc737" fill-rule="evenodd"/>
  <path d="M324.72,188.61c3.21.44,6.46.79,9.67,1.3a1.42,1.42,0,1,0,.43-2.77c-3.23-.53-6.49-.93-9.75-1.31a1.4,1.4,0,1,0-.52,2.75l.17,0Z" fill="#fcc737" fill-rule="evenodd"/>
  <path d="M314.37,164.08c2.17-2.42,4.28-4.91,6.5-7.28a1.42,1.42,0,1,0-2.05-1.92c-2.25,2.39-4.41,4.87-6.55,7.35a1.4,1.4,0,1,0,2,2l.13-.12Z" fill="#fcc737" fill-rule="evenodd"/>
  <path d="M174,97.46S162.34,97,156.26,83.75c-3.63-8-4-18.32-4.07-18.7-.1-6.61,2.66-20.49,15.08-27.37,11-6.13,13.51-3,15.95-3.53s4.34-3.09,12.15-3.36c6.72-.21,15.75,3.52,22.19,10.37,5.62,6,5.36,6.71,9.72,15.75C234,77.69,207.5,79.7,207.5,79.7S180,112.54,174,102.49C172.78,100.47,174,97.46,174,97.46Z"/>
  <path d="M225.31,97.9s4-12.2-3.36-28.51-10-24.5-18.66-26.18c-5.59-1.09-6.5-.07-8.19,2.31-1.41,2-3,5.61-4.69,8-3.68,5.37-11.06,6.65-14.74,6-4-.67,6.36,6,4,13.4-4.07,12.78,2.43,25.08,3.35,32.51,2.22,6.77,14.82,12,27.73,8,7.43-2.27,4.56-8.89,4.56-8.89a20.27,20.27,0,0,0,6.24-2.27c2-1.25,3.79-4.45,3.79-4.45Z" fill="#f09f96"/>
  <path d="M179.3,77.59c2.09,3.36,3.82,9.43.75,12.79a6.24,6.24,0,0,1-3,1.79c-3.93,1-8.23-2.18-10.16-5.65s-2.65-9.09.75-11.94a7.62,7.62,0,0,1,7.25-1.13A8.81,8.81,0,0,1,179.3,77.59Z" fill="#f09f96"/>
  <path d="M170.26,79.73a3,3,0,0,1,2.23-.64c1.7.3,2.44,2.54,2.59,3.78a5.58,5.58,0,0,1-.77,3.43" fill="none" stroke="#000" stroke-linecap="round" stroke-linejoin="round" stroke-width="3"/>
  <path d="M203,67.49c1.85,2.28,3.58,4.61,5.21,7.05a15.38,15.38,0,0,1,2.06,3.52c.11.43.22,1-.22,1.25a.58.58,0,0,1-.87-.38,1,1,0,0,0-2,.54A2.68,2.68,0,0,0,211.21,81c1.79-1.14,1.24-3.42.38-4.93a71.75,71.75,0,0,0-7.16-10A1,1,0,1,0,203,67.49Z"/>
  <path d="M207.19,79.36V80c-.05.22.11-.22,0,0a.46.46,0,0,1-.16.27c-.11.16.16-.16,0,0,0,0-.05.11-.11.11s0,0-.11.11.22-.17,0,0a1,1,0,0,0-.27.16c.16-.06.22-.16,0,0h-.43c-.11,0-.22-.06,0,0a.59.59,0,0,1-.32-.06h-.11c-.11,0-.17-.1-.27-.16s.16.11,0,0l-.11-.11-.11-.1c-.16-.17.11.1,0,0s-.1-.22-.16-.33a1,1,0,0,0-1.41-.38,1.11,1.11,0,0,0-.38,1.41,3.15,3.15,0,0,0,3.53,1.63,3.22,3.22,0,0,0,2.33-3.2,1,1,0,0,0-2.06,0Z"/>
  <path d="M196.67,68.41c0,1.68-3.47,2-6.67,2.71-2.39.54-4.07,1.74-5,.65-1.3-1.51-.44-3.74.65-4.6,1.84-1.41,6.24-2.72,9-1.79a3.11,3.11,0,0,1,2.06,3Z" fill="#fdfaff"/>
  <path d="M217.77,62.29c.22,1.73-2.5,1.89-5.7,2.65-2.33.6-4.77,2.44-6,.33a3.11,3.11,0,0,1,.87-3.63c1.85-1.47,6.24-2.77,9-1.79A2.84,2.84,0,0,1,217.77,62.29Z" fill="#fdfaff"/>
  <path d="M210.61,65.81c2.66,0,2.66-4.17,0-4.17S208,65.81,210.61,65.81Z"/>
  <path d="M189.51,71.56c2.66,0,2.66-4.18,0-4.18S186.85,71.56,189.51,71.56Z"/>
  <path d="M194.12,58.49a11.41,11.41,0,0,0-13.94,4.77,1.79,1.79,0,0,0,3.09,1.79,6.28,6.28,0,0,1,.38-.6s.17-.21,0-.1a1.33,1.33,0,0,1,.22-.27,8.35,8.35,0,0,1,1-1c.11-.06.16-.17.27-.22-.16.11,0,0,.11,0,.22-.16.43-.27.6-.38a6.51,6.51,0,0,1,.65-.33l.32-.16c-.21.11.11,0,.17-.05a8,8,0,0,1,6,.16,1.8,1.8,0,0,0,2.22-1.25A1.89,1.89,0,0,0,194,58.6Z"/>
  <path d="M215.49,52.31a9.56,9.56,0,0,0-7.27-1.19,9.74,9.74,0,0,0-5.64,3.9,1.79,1.79,0,0,0,.65,2.44,1.83,1.83,0,0,0,2.44-.65c.11-.16.11-.11,0,0a1,1,0,0,1,.22-.27c.16-.16.27-.32.43-.49s.33-.27.49-.43.17-.11,0,0c.11,0,.17-.11.27-.16a7.26,7.26,0,0,1,1.14-.6c-.16,0-.11,0,0,0a.72.72,0,0,0,.33-.11c.22,0,.43-.16.7-.21a.65.65,0,0,0,.33-.06h1.9a13.63,13.63,0,0,1,1.35.38c-.21-.11.27.11,0,0,.11,0,.22.11.33.16s.43.27.65.38a1.79,1.79,0,0,0,1.79-3.09Z"/>
  <path d="M212.45,49.33c6.67,11.71,12.1,26,12.26,39.57,0,3.2,0,6.83-1.84,9.6a11.18,11.18,0,0,1-6.89,4.44c-7.27,2-14.75.38-21.91-1.24-2.23-.49-3.2,2.92-1,3.46,12.69,2.88,33.41,5.48,35-12.46.7-8-1.14-16.32-3.53-23.91a107.15,107.15,0,0,0-9.11-21.25c-1.14-2-4.23-.21-3.09,1.79Z"/>
  <path d="M193.47,81s-.11.54-.16.76a1.09,1.09,0,0,1-.11.38.18.18,0,0,1-.06.16h0a1.94,1.94,0,0,1-.38.7,1,1,0,0,1-.21.33.91.91,0,0,1-.11.16A4.53,4.53,0,0,1,192,84h0a.55.55,0,0,0-.16.11s-.11.11-.16,0c.1,0,.16,0,.05,0h-.22c-.21.06.17,0-.05,0h-.22a.7.7,0,0,1-.43-.11,1.14,1.14,0,0,1-.44-.1l.44.27s.16.27.27.43a6,6,0,0,1-.11.7c-.27.17-.6.33-.87.49a2.13,2.13,0,0,0-.49-.11,9.74,9.74,0,0,0-.38-1.35,1.06,1.06,0,0,0,.38,1.41,1,1,0,0,0,1.36-.38,1.06,1.06,0,0,0-.38-1.41,1,1,0,0,0-1.36.22.92.92,0,0,0,0,1.24,2,2,0,0,0,1.42.6,4.78,4.78,0,0,0,1.51,0,3.7,3.7,0,0,0,1.2-.65,5.25,5.25,0,0,0,1.35-1.74,6.73,6.73,0,0,0,.76-2.22,1.71,1.71,0,0,0-.11-.76,1,1,0,0,0-.59-.43,1,1,0,0,0-1.25.7Z"/>
  <path d="M210.83,87.76s0,7.48-6.4,8.84-11.94-4.77-12.64-11.38c0,0,.6-2.06,2.82,0s9.49,5.85,16.22,2.49Z"/>
  <path d="M195.64,85c.49,3.74,4.88,7.1,8.68,7.1,2.66,0,3.69-2.23,4.12-4C203.12,89.23,197.92,86.73,195.64,85Z" fill="#fff"/>
  <path d="M193.25,90.15c1.85,3.63,5.05,6.34,8.79,6.61a9.09,9.09,0,0,0-3.63-5.15,6.52,6.52,0,0,0-5.16-1.41Z" fill="#d95261"/>
  <path d="M212,86a13,13,0,0,1-9.11,1.57,19.27,19.27,0,0,1-4.56-1.41c-1.35-.6-3-1.25-3.9-2.5-.76-1-2.5,0-1.74,1a9.57,9.57,0,0,0,4.07,2.93,24.68,24.68,0,0,0,5.58,1.84A15.09,15.09,0,0,0,213,87.71c1.08-.7.1-2.44-1-1.73Z"/>
</svg>
